<svg width="14" height="20" viewBox="0 0 14 20" fill="none" xmlns="http://www.w3.org/2000/svg">
<path d="M0.530964 8.13241C0.766855 9.4557 1.40317 10.6745 2.35397 11.6242C3.3074 12.5779 4.5328 13.213 5.86199 13.4421L5.86111 16.3767L5.75206 16.0655C5.66657 15.8253 5.52854 15.6071 5.34804 15.427L4.94395 15.0229C4.49905 14.5751 3.77516 14.573 3.32713 15.0182C3.30459 15.0406 3.28301 15.0639 3.26241 15.0881C2.88425 15.5655 2.92768 16.2512 3.36299 16.6766L6.19162 19.5052C6.63796 19.9516 7.36186 19.9514 7.80847 19.5047L10.6388 16.6744C11.0549 16.2783 11.1266 15.6409 10.809 15.1626C10.4451 14.6468 9.73184 14.5239 9.21583 14.888C9.15801 14.9288 9.10409 14.9749 9.05478 15.0257L8.65045 15.43C8.46383 15.6164 8.32269 15.8433 8.23796 16.0931L8.15298 16.4124L8.14982 13.4415C11.721 12.8027 14.1 9.39023 13.4635 5.81941C12.8269 2.24859 9.4158 -0.128361 5.8446 0.510355C2.27339 1.14907 -0.105608 4.56159 0.530964 8.13241ZM10.0363 3.94192C11.7101 5.61571 11.7093 8.3303 10.0345 10.0051C8.35968 11.6799 5.6451 11.6807 3.97131 10.0069C2.29751 8.33312 2.29833 5.61854 3.97312 3.94374C5.64921 2.2721 8.36117 2.27128 10.0363 3.94192Z" fill="white"/>
</svg>
