<svg width="24" height="24" viewBox="0 0 24 24" fill="none" xmlns="http://www.w3.org/2000/svg">
<path d="M5.50942 11.1532C5.74415 12.4796 6.38105 13.7005 7.33386 14.6506C8.2871 15.6041 9.51306 16.2382 10.8435 16.4659L10.8366 18.1534L9.54976 18.1555C8.91839 18.1888 8.43181 18.7274 8.46299 19.3587C8.49202 19.9465 8.96217 20.415 9.55004 20.4419L10.8329 20.4439L10.8348 21.7267C10.8825 22.3569 11.4322 22.8274 12.0626 22.7776C12.6251 22.7331 13.0727 22.2855 13.1172 21.7229L13.1233 20.4401L14.4062 20.4339C15.0387 20.4329 15.5523 19.9193 15.5533 19.2868C15.5543 18.6543 15.0425 18.1424 14.41 18.1435L13.1271 18.1496L13.1299 16.4581C16.7061 15.8138 19.0924 12.3941 18.4599 8.82007C17.8274 5.24599 14.4156 2.8709 10.8395 3.51517C7.26328 4.15944 4.87693 7.57909 5.50942 11.1532ZM15.0354 6.94907C16.7089 8.62254 16.7044 11.3403 15.0254 13.0192C13.3464 14.6982 10.6287 14.7027 8.95524 13.0292C7.28177 11.3558 7.28625 8.63806 8.96524 6.95907C10.6455 5.28322 13.3606 5.27877 15.0354 6.94907Z" fill="white"/>
</svg>
